<mxfile host="86788680-c5d3-4513-844d-ec905f77b131" modified="2020-09-02T12:46:12.666Z" agent="5.0 (Macintosh; Intel Mac OS X 10_15_2) AppleWebKit/537.36 (KHTML, like Gecko) Code/1.48.2 Chrome/78.0.3904.130 Electron/7.3.2 Safari/537.36" etag="q5DqnNdEnsZlvlLCpdkE" version="13.1.3">
    <diagram id="6hGFLwfOUW9BJ-s0fimq" name="Page-1">
        <mxGraphModel dx="898" dy="555" grid="1" gridSize="10" guides="1" tooltips="1" connect="1" arrows="1" fold="1" page="1" pageScale="1" pageWidth="827" pageHeight="1169" math="0" shadow="0">
            <root>
                <mxCell id="0"/>
                <mxCell id="1" parent="0"/>
                <mxCell id="37" value="" style="rounded=0;whiteSpace=wrap;html=1;fillColor=#2A2A2A;" parent="1" vertex="1">
                    <mxGeometry y="20" width="830" height="299" as="geometry"/>
                </mxCell>
                <mxCell id="18" value="&lt;span style=&quot;font-style: normal&quot;&gt;&lt;font color=&quot;#ffffff&quot;&gt;Tunnel Cast&lt;/font&gt;&lt;/span&gt;" style="text;html=1;align=center;verticalAlign=middle;resizable=0;points=[];autosize=1;strokeWidth=1;fontSize=15;fontStyle=2" parent="1" vertex="1">
                    <mxGeometry x="440" y="31" width="100" height="20" as="geometry"/>
                </mxCell>
                <mxCell id="38" value="" style="group" parent="1" vertex="1" connectable="0">
                    <mxGeometry x="31" y="54" width="770" height="250" as="geometry"/>
                </mxCell>
                <mxCell id="5" value="&lt;font color=&quot;#ffffff&quot;&gt;Raw Object&lt;/font&gt;" style="rounded=1;whiteSpace=wrap;html=1;fillColor=#2A2A2A;strokeColor=#FFFFFF;" parent="38" vertex="1">
                    <mxGeometry x="-6" y="120" width="80" height="80" as="geometry"/>
                </mxCell>
                <mxCell id="10" value="" style="endArrow=classic;html=1;verticalAlign=middle;strokeColor=#FFFFFF;" parent="38" edge="1">
                    <mxGeometry width="50" height="50" relative="1" as="geometry">
                        <mxPoint x="83" y="40" as="sourcePoint"/>
                        <mxPoint x="155" y="80" as="targetPoint"/>
                        <Array as="points">
                            <mxPoint x="155" y="40"/>
                        </Array>
                    </mxGeometry>
                </mxCell>
                <mxCell id="20" value="&lt;font color=&quot;#ffffff&quot;&gt;Model Class&lt;/font&gt;" style="whiteSpace=wrap;html=1;aspect=fixed;fillColor=#2A2A2A;strokeColor=#FFFFFF;" parent="38" vertex="1">
                    <mxGeometry x="-6" width="80" height="80" as="geometry"/>
                </mxCell>
                <mxCell id="21" value="" style="endArrow=classic;html=1;strokeColor=#FFFFFF;" parent="38" edge="1">
                    <mxGeometry width="50" height="50" relative="1" as="geometry">
                        <mxPoint x="83" y="160" as="sourcePoint"/>
                        <mxPoint x="200" y="120" as="targetPoint"/>
                        <Array as="points">
                            <mxPoint x="200" y="160"/>
                        </Array>
                    </mxGeometry>
                </mxCell>
                <mxCell id="23" value="&lt;font style=&quot;font-size: 14px&quot; color=&quot;#ffffff&quot;&gt;cast(&lt;/font&gt;&lt;span style=&quot;color: rgb(255 , 255 , 255) ; font-size: 14px&quot;&gt;Model,&amp;nbsp;&lt;/span&gt;&lt;font style=&quot;font-size: 14px&quot; color=&quot;#ffffff&quot;&gt;object)&amp;nbsp;&lt;/font&gt;" style="text;html=1;align=center;verticalAlign=middle;resizable=0;points=[];autosize=1;" parent="38" vertex="1">
                    <mxGeometry x="96" y="89" width="140" height="20" as="geometry"/>
                </mxCell>
                <mxCell id="25" value="" style="endArrow=classic;html=1;strokeColor=#FFFFFF;" parent="38" edge="1">
                    <mxGeometry width="50" height="50" relative="1" as="geometry">
                        <mxPoint x="231" y="100.5" as="sourcePoint"/>
                        <mxPoint x="281" y="100.5" as="targetPoint"/>
                    </mxGeometry>
                </mxCell>
                <mxCell id="29" value="" style="endArrow=classic;html=1;fontColor=#FFFFFF;fontSize=12;strokeColor=#FFFFFF;" parent="38" edge="1">
                    <mxGeometry width="50" height="50" relative="1" as="geometry">
                        <mxPoint x="646" y="102.5" as="sourcePoint"/>
                        <mxPoint x="696" y="102.5" as="targetPoint"/>
                    </mxGeometry>
                </mxCell>
                <mxCell id="31" value="&lt;font color=&quot;#ffffff&quot;&gt;&lt;span&gt;Casted&amp;nbsp;&lt;/span&gt;&lt;br&gt;&lt;span&gt;Object&lt;/span&gt;&lt;/font&gt;" style="rounded=0;whiteSpace=wrap;html=1;fillColor=#2A2A2A;strokeColor=#FFFFFF;" parent="38" vertex="1">
                    <mxGeometry x="705" y="57" width="70" height="90" as="geometry"/>
                </mxCell>
                <mxCell id="34" value="" style="endArrow=classic;html=1;fontSize=12;fontColor=#FFFFFF;strokeColor=#FFFFFF;" parent="38" edge="1">
                    <mxGeometry width="50" height="50" relative="1" as="geometry">
                        <mxPoint x="669" y="103" as="sourcePoint"/>
                        <mxPoint x="669" y="190" as="targetPoint"/>
                    </mxGeometry>
                </mxCell>
                <mxCell id="36" value="&lt;font color=&quot;#ffffff&quot;&gt;Casting &lt;br&gt;Error&lt;/font&gt;" style="shape=parallelogram;perimeter=parallelogramPerimeter;whiteSpace=wrap;html=1;strokeWidth=1;fontSize=12;fillColor=#2A2A2A;strokeColor=#FFFFFF;" parent="38" vertex="1">
                    <mxGeometry x="625" y="200" width="80" height="50" as="geometry"/>
                </mxCell>
                <mxCell id="54" value="" style="group" vertex="1" connectable="0" parent="1">
                    <mxGeometry x="320" y="89" width="346" height="140" as="geometry"/>
                </mxCell>
                <mxCell id="30" value="" style="shape=process;whiteSpace=wrap;html=1;backgroundOutline=1;strokeColor=#FFFFFF;fillColor=#2A2A2A;size=0.08928571428571429;" parent="54" vertex="1">
                    <mxGeometry width="345.99999999999994" height="140" as="geometry"/>
                </mxCell>
                <mxCell id="33" value="&lt;font color=&quot;#ffffff&quot;&gt;process each&amp;nbsp;&lt;br style=&quot;font-size: 12px&quot;&gt;attribute&amp;nbsp;&lt;/font&gt;" style="text;html=1;align=center;verticalAlign=middle;resizable=0;points=[];autosize=1;fontSize=12;rotation=270;" parent="54" vertex="1">
                    <mxGeometry x="-30.89285714285714" y="55" width="90" height="30" as="geometry"/>
                </mxCell>
                <mxCell id="11" value="&lt;b&gt;Parsing&lt;/b&gt;" style="rounded=0;whiteSpace=wrap;html=1;strokeColor=#F0F0F0;rotation=-90;fillColor=#2A2A2A;fontColor=#FFFFFF;" parent="54" vertex="1">
                    <mxGeometry x="144.92857142857142" y="56" width="102.97619047619047" height="30" as="geometry"/>
                </mxCell>
                <mxCell id="12" value="&lt;b&gt;Validation&lt;/b&gt;" style="rounded=0;whiteSpace=wrap;html=1;strokeColor=#F0F0F0;rotation=-90;fillColor=#2A2A2A;fontColor=#FFFFFF;" parent="54" vertex="1">
                    <mxGeometry x="192.29761904761904" y="56" width="102.97619047619047" height="30" as="geometry"/>
                </mxCell>
                <mxCell id="14" value="&lt;b&gt;Transformation&lt;/b&gt;" style="rounded=0;whiteSpace=wrap;html=1;strokeColor=#F0F0F0;rotation=-90;fillColor=#2A2A2A;fontColor=#FFFFFF;" parent="54" vertex="1">
                    <mxGeometry x="239.66666666666663" y="56" width="102.97619047619047" height="30" as="geometry"/>
                </mxCell>
                <mxCell id="16" value="&lt;b&gt;Requiered Evaluation&lt;/b&gt;" style="rounded=0;whiteSpace=wrap;html=1;strokeColor=#F0F0F0;rotation=-90;fillColor=#2A2A2A;fontColor=#FFFFFF;" parent="54" vertex="1">
                    <mxGeometry x="50.19047619047619" y="56" width="102.97619047619047" height="30" as="geometry"/>
                </mxCell>
                <mxCell id="17" value="&lt;b&gt;Defaulting&lt;/b&gt;" style="rounded=0;whiteSpace=wrap;html=1;strokeColor=#F0F0F0;rotation=-90;fillColor=#2A2A2A;fontColor=#FFFFFF;" parent="54" vertex="1">
                    <mxGeometry x="97.5595238095238" y="56" width="102.97619047619047" height="30" as="geometry"/>
                </mxCell>
                <mxCell id="48" value="" style="endArrow=open;dashed=1;html=1;curved=1;endFill=0;strokeColor=#FFFFFF;" edge="1" parent="54">
                    <mxGeometry width="50" height="50" relative="1" as="geometry">
                        <mxPoint x="289.15476190476187" y="128" as="sourcePoint"/>
                        <mxPoint x="330" y="115" as="targetPoint"/>
                        <Array as="points">
                            <mxPoint x="309.74999999999994" y="198"/>
                        </Array>
                    </mxGeometry>
                </mxCell>
                <mxCell id="42" value="" style="endArrow=none;dashed=1;html=1;curved=1;strokeColor=#FFFFFF;" edge="1" parent="54">
                    <mxGeometry width="50" height="50" relative="1" as="geometry">
                        <mxPoint x="244.87499999999997" y="129" as="sourcePoint"/>
                        <mxPoint x="286.06547619047615" y="129" as="targetPoint"/>
                        <Array as="points">
                            <mxPoint x="265.4702380952381" y="199"/>
                        </Array>
                    </mxGeometry>
                </mxCell>
                <mxCell id="44" value="" style="endArrow=none;dashed=1;html=1;curved=1;strokeColor=#FFFFFF;" edge="1" parent="54">
                    <mxGeometry width="50" height="50" relative="1" as="geometry">
                        <mxPoint x="199.59523809523807" y="128" as="sourcePoint"/>
                        <mxPoint x="240.78571428571425" y="128" as="targetPoint"/>
                        <Array as="points">
                            <mxPoint x="220.19047619047618" y="198"/>
                        </Array>
                    </mxGeometry>
                </mxCell>
                <mxCell id="45" value="" style="endArrow=none;dashed=1;html=1;curved=1;strokeColor=#FFFFFF;" edge="1" parent="54">
                    <mxGeometry width="50" height="50" relative="1" as="geometry">
                        <mxPoint x="105.91666666666666" y="128" as="sourcePoint"/>
                        <mxPoint x="194.47619047619045" y="128" as="targetPoint"/>
                        <Array as="points">
                            <mxPoint x="132.69047619047618" y="198"/>
                        </Array>
                    </mxGeometry>
                </mxCell>
                <mxCell id="49" value="&lt;b&gt;Value &lt;br&gt;Extraction&lt;/b&gt;" style="rounded=0;whiteSpace=wrap;html=1;strokeColor=#F0F0F0;rotation=-90;fillColor=#2A2A2A;fontColor=#FFFFFF;" vertex="1" parent="54">
                    <mxGeometry x="4" y="56" width="100" height="30" as="geometry"/>
                </mxCell>
                <mxCell id="46" value="" style="endArrow=none;dashed=1;html=1;curved=1;strokeColor=#FFFFFF;" edge="1" parent="1">
                    <mxGeometry width="50" height="50" relative="1" as="geometry">
                        <mxPoint x="424" y="103" as="sourcePoint"/>
                        <mxPoint x="464" y="103" as="targetPoint"/>
                        <Array as="points">
                            <mxPoint x="444" y="33"/>
                        </Array>
                    </mxGeometry>
                </mxCell>
                <mxCell id="47" value="" style="endArrow=open;dashed=1;html=1;curved=1;entryX=0.948;entryY=0.107;entryDx=0;entryDy=0;entryPerimeter=0;endFill=0;strokeColor=#FFFFFF;" edge="1" parent="1">
                    <mxGeometry width="50" height="50" relative="1" as="geometry">
                        <mxPoint x="467" y="100" as="sourcePoint"/>
                        <mxPoint x="648.9839999999999" y="106.98000000000002" as="targetPoint"/>
                        <Array as="points">
                            <mxPoint x="493" y="20"/>
                        </Array>
                    </mxGeometry>
                </mxCell>
                <mxCell id="55" value="" style="endArrow=none;dashed=1;html=1;curved=1;strokeColor=#FFFFFF;" edge="1" parent="1">
                    <mxGeometry width="50" height="50" relative="1" as="geometry">
                        <mxPoint x="379.99523809523805" y="217" as="sourcePoint"/>
                        <mxPoint x="421.1857142857142" y="217" as="targetPoint"/>
                        <Array as="points">
                            <mxPoint x="400.5904761904761" y="287"/>
                        </Array>
                    </mxGeometry>
                </mxCell>
                <mxCell id="56" value="" style="endArrow=none;dashed=1;html=1;curved=1;strokeColor=#FFFFFF;" edge="1" parent="1">
                    <mxGeometry width="50" height="50" relative="1" as="geometry">
                        <mxPoint x="381" y="104" as="sourcePoint"/>
                        <mxPoint x="421" y="104" as="targetPoint"/>
                        <Array as="points">
                            <mxPoint x="401" y="34"/>
                        </Array>
                    </mxGeometry>
                </mxCell>
            </root>
        </mxGraphModel>
    </diagram>
</mxfile>